<svg width="28" height="25" viewBox="0 0 28 25" fill="none" xmlns="http://www.w3.org/2000/svg">
<path d="M14 2.875C8.14844 2.875 3.39062 7.25 2.67969 12.8281C3.22656 12.6641 3.77344 12.5 4.375 12.5C5.79688 12.5 7 13.7031 7 15.125V22.125C7 23.6016 5.79688 24.75 4.375 24.75C1.91406 24.75 0 22.8359 0 20.375V19.5V16.875V14.25C0 6.53906 6.23438 0.25 14 0.25C21.7109 0.25 28 6.53906 28 14.25V16.875V19.5V20.375C28 22.8359 26.0312 24.75 23.625 24.75C22.1484 24.75 21 23.6016 21 22.125V15.125C21 13.7031 22.1484 12.5 23.625 12.5C24.1719 12.5 24.7734 12.6641 25.2656 12.8281C24.5547 7.25 19.7969 2.875 14 2.875Z" fill="#121212"/>
</svg>
